<?xml version="1.0" standalone="no"?>
<!DOCTYPE svg PUBLIC "-//W3C//DTD SVG 20010904//EN"
 "http://www.w3.org/TR/2001/REC-SVG-20010904/DTD/svg10.dtd">
<svg version="1.0" xmlns="http://www.w3.org/2000/svg"
 width="834.000000pt" height="834.000000pt" viewBox="0 0 834.000000 834.000000"
 preserveAspectRatio="xMidYMid meet">

<g transform="translate(0.000000,834.000000) scale(0.100000,-0.100000)"
fill="#000000" stroke="none">
<path d="M3930 8324 c-19 -2 -91 -9 -159 -15 -165 -14 -392 -52 -571 -95
-1205 -289 -2221 -1103 -2765 -2214 -217 -445 -353 -921 -407 -1430 -17 -163
-17 -637 0 -800 104 -982 518 -1856 1202 -2540 684 -684 1558 -1098 2540
-1202 163 -17 637 -17 800 0 982 104 1856 518 2540 1202 684 684 1098 1558
1202 2540 17 163 17 637 0 800 -104 982 -518 1856 -1202 2540 -680 680 -1552
1094 -2525 1200 -101 11 -590 22 -655 14z m1582 -1867 l1333 -762 3 -1531 2
-1532 -1335 -762 c-735 -419 -1339 -760 -1344 -758 -4 2 -607 343 -1339 758
l-1332 755 2 1535 3 1534 170 98 c1571 901 2491 1427 2497 1427 3 1 606 -342
1340 -762z"/>
<path d="M2966 6292 c-605 -346 -1101 -633 -1103 -638 -2 -5 9 -16 25 -25 15
-9 92 -54 172 -101 192 -113 507 -297 935 -548 224 -131 425 -249 640 -375
378 -221 436 -255 440 -255 3 0 5 578 5 1285 0 707 -3 1285 -7 1285 -5 0 -503
-283 -1107 -628z"/>
<path d="M4270 5635 c0 -707 4 -1285 8 -1285 10 0 34 14 1937 1132 149 87 270
164 270 170 0 10 -2190 1268 -2207 1268 -5 0 -8 -578 -8 -1285z"/>
<path d="M6020 5141 c-344 -202 -853 -501 -1132 -665 -280 -164 -508 -301
-508 -305 1 -3 155 -96 343 -205 188 -110 482 -282 652 -382 171 -100 526
-308 790 -463 l480 -281 3 664 c1 365 1 966 0 1335 l-3 670 -625 -368z"/>
<path d="M1700 4169 c0 -1264 1 -1331 18 -1324 9 3 58 30 107 59 75 45 493
290 1070 629 66 39 156 92 200 118 340 200 819 481 844 494 52 27 86 2 -374
272 -93 55 -199 117 -235 138 -162 95 -478 280 -615 360 -82 48 -240 141 -350
205 -110 64 -267 157 -350 205 -230 136 -299 175 -307 175 -5 0 -8 -599 -8
-1331z"/>
<path d="M3995 3951 c-44 -26 -134 -79 -200 -118 -66 -39 -313 -184 -550 -323
-236 -139 -484 -284 -550 -323 -66 -39 -156 -92 -200 -117 -44 -26 -197 -116
-340 -200 -143 -84 -275 -161 -293 -172 l-33 -20 188 -107 c103 -59 314 -178
468 -266 336 -190 852 -482 1215 -688 368 -208 371 -210 376 -205 2 3 3 586 2
1296 l-3 1291 -80 -48z"/>
<path d="M4270 2705 c0 -714 4 -1295 9 -1295 6 0 2227 1264 2238 1274 2 2
-207 126 -465 276 -257 151 -761 447 -1120 657 -360 211 -656 383 -658 383 -2
0 -4 -583 -4 -1295z"/>
</g>
</svg>
