<?xml version="1.0" standalone="no"?>
<!DOCTYPE svg PUBLIC "-//W3C//DTD SVG 20010904//EN"
 "http://www.w3.org/TR/2001/REC-SVG-20010904/DTD/svg10.dtd">
<svg version="1.0" xmlns="http://www.w3.org/2000/svg"
 width="834.000000pt" height="834.000000pt" viewBox="0 0 834.000000 834.000000"
 preserveAspectRatio="xMidYMid meet">

<g transform="translate(0.000000,834.000000) scale(0.100000,-0.100000)"
fill="#000000" stroke="none">
<path d="M3889 8320 c-1761 -131 -3229 -1318 -3715 -3004 -114 -394 -158 -714
-158 -1146 0 -296 13 -454 55 -700 225 -1300 1040 -2407 2214 -3005 454 -231
918 -369 1450 -431 208 -24 662 -24 870 0 532 62 996 200 1450 431 1174 598
1989 1705 2214 3005 42 246 55 404 55 700 0 296 -13 454 -55 700 -225 1300
-1040 2407 -2214 3005 -452 230 -928 372 -1445 430 -164 19 -562 27 -721 15z
m1627 -1862 l1334 -763 -3 -1534 -2 -1534 -1329 -758 c-731 -418 -1333 -759
-1338 -759 -5 0 -262 143 -571 318 -309 175 -910 516 -1334 756 l-773 438 0
1537 0 1536 1332 763 c733 419 1336 762 1341 762 5 0 609 -343 1343 -762z"/>
<path d="M2965 6290 c-605 -347 -1101 -633 -1102 -638 -1 -4 190 -119 425
-257 235 -137 733 -428 1106 -647 373 -219 680 -398 682 -398 2 0 4 578 4
1285 0 707 -3 1285 -7 1285 -5 0 -503 -284 -1108 -630z"/>
<path d="M4280 5636 c0 -708 3 -1285 8 -1283 12 7 559 328 1212 711 344 202
707 416 807 474 101 59 183 110 183 113 0 3 -487 284 -1082 624 -596 340
-1093 625 -1105 633 l-23 14 0 -1286z"/>
<path d="M6320 5314 c-179 -105 -665 -390 -1080 -634 -415 -243 -779 -457
-807 -474 -29 -17 -49 -34 -45 -38 4 -3 347 -206 762 -449 415 -243 922 -540
1125 -659 l370 -217 3 669 c1 368 1 967 0 1332 l-3 662 -325 -192z"/>
<path d="M1700 4171 c0 -732 3 -1331 6 -1331 6 0 150 84 1279 747 341 201 702
413 802 471 101 59 183 110 183 113 0 4 -217 134 -482 290 -266 155 -649 380
-853 499 -798 468 -907 531 -921 537 -12 4 -14 -172 -14 -1326z"/>
<path d="M3255 3514 c-445 -262 -946 -555 -1112 -652 -166 -98 -302 -180 -303
-183 0 -4 316 -185 703 -404 386 -219 887 -503 1114 -632 226 -128 414 -233
417 -233 3 0 6 580 6 1290 0 710 -3 1290 -7 1290 -5 0 -372 -214 -818 -476z"/>
<path d="M4280 2699 l0 -1291 33 19 c17 11 520 297 1115 637 596 340 1080 622
1075 626 -4 5 -199 121 -433 258 -234 137 -730 427 -1102 645 -372 218 -679
397 -682 397 -3 0 -6 -581 -6 -1291z"/>
</g>
</svg>
