<?xml version="1.0" standalone="no"?>
<!DOCTYPE svg PUBLIC "-//W3C//DTD SVG 20010904//EN"
 "http://www.w3.org/TR/2001/REC-SVG-20010904/DTD/svg10.dtd">
<svg version="1.0" xmlns="http://www.w3.org/2000/svg"
 width="225.000000pt" height="225.000000pt" viewBox="0 0 225.000000 225.000000"
 preserveAspectRatio="xMidYMid meet">

<g transform="translate(0.000000,225.000000) scale(0.100000,-0.100000)"
fill="#000000" stroke="none">
<path d="M940 2230 c-227 -42 -429 -144 -594 -299 -112 -105 -230 -294 -281
-446 -34 -101 -65 -270 -65 -357 0 -72 22 -217 46 -308 17 -62 19 -66 68 -173
210 -458 730 -723 1226 -624 265 53 498 197 669 412 158 198 251 484 238 730
-5 100 -21 193 -50 294 -19 64 -116 264 -149 305 -158 198 -269 291 -454 378
-98 45 -179 70 -312 92 -115 20 -220 19 -342 -4z m390 -374 c85 -49 196 -112
245 -141 50 -29 116 -67 148 -84 32 -18 79 -44 105 -60 l47 -27 0 -428 0 -429
-200 -114 c-110 -63 -252 -144 -315 -180 -164 -94 -217 -123 -227 -123 -8 0
-147 77 -353 196 -41 23 -98 56 -126 71 -28 15 -99 55 -158 88 l-106 60 2 429
3 429 120 70 c66 39 165 96 220 127 55 32 154 88 220 126 192 110 177 104 200
90 11 -7 90 -52 175 -100z"/>
<path d="M990 1814 c-52 -31 -124 -73 -160 -93 -197 -109 -330 -187 -330 -192
0 -3 19 -16 42 -29 24 -13 153 -89 287 -168 133 -79 252 -147 262 -149 18 -5
19 6 19 341 0 270 -3 346 -12 346 -7 0 -56 -26 -108 -56z"/>
<path d="M1170 1525 c0 -190 2 -345 4 -345 9 0 518 297 569 333 l28 19 -133
75 c-73 42 -178 101 -233 133 -55 32 -122 70 -150 85 -27 15 -54 31 -59 36 -6
5 -14 9 -18 9 -4 0 -8 -155 -8 -345z"/>
<path d="M450 1120 c0 -198 3 -360 8 -360 4 0 22 9 41 21 19 11 49 29 67 38
111 60 502 296 498 302 -2 4 -64 42 -136 84 -73 43 -209 122 -301 176 -93 55
-170 99 -173 99 -2 0 -4 -162 -4 -360z"/>
<path d="M1709 1421 c-52 -32 -118 -71 -145 -86 -99 -55 -354 -207 -359 -214
-2 -4 19 -21 48 -38 29 -16 161 -94 294 -172 134 -78 250 -144 258 -147 13 -5
15 38 15 355 0 199 -3 361 -7 361 -5 0 -51 -27 -104 -59z"/>
<path d="M1030 1022 c-36 -21 -108 -64 -160 -94 -131 -76 -374 -220 -378 -223
-3 -2 42 -28 358 -207 192 -109 245 -138 255 -138 3 0 5 158 5 350 0 193 -3
350 -7 350 -5 0 -37 -17 -73 -38z"/>
<path d="M1170 710 l0 -351 68 37 c37 21 100 57 140 81 41 24 75 43 77 43 3 0
64 35 137 78 73 42 145 84 160 91 16 8 27 15 25 17 -4 4 -321 190 -427 251
-58 33 -122 70 -142 83 l-38 22 0 -352z"/>
</g>
</svg>
