<?xml version="1.0" standalone="no"?>
<!DOCTYPE svg PUBLIC "-//W3C//DTD SVG 20010904//EN"
 "http://www.w3.org/TR/2001/REC-SVG-20010904/DTD/svg10.dtd">
<svg version="1.0" xmlns="http://www.w3.org/2000/svg"
 width="834.000000pt" height="834.000000pt" viewBox="0 0 834.000000 834.000000"
 preserveAspectRatio="xMidYMid meet">

<g transform="translate(0.000000,834.000000) scale(0.100000,-0.100000)"
fill="#000000" stroke="none">
<path d="M3875 8319 c-1484 -105 -2813 -1010 -3456 -2354 -672 -1406 -503
-3065 439 -4309 839 -1108 2203 -1731 3582 -1636 1509 104 2833 1000 3481
2355 672 1406 503 3065 -439 4309 -844 1115 -2208 1733 -3607 1635z m1645
-1864 l1330 -760 0 -1532 0 -1532 -1331 -760 c-732 -419 -1336 -761 -1341
-761 -5 0 -144 77 -309 170 -164 94 -435 247 -601 341 -167 94 -420 238 -563
319 -275 156 -838 475 -1067 605 l-138 77 0 1537 0 1536 263 149 c144 83 744
426 1332 763 589 337 1075 612 1082 611 7 -2 611 -345 1343 -763z"/>
<path d="M3940 6849 c-969 -553 -2080 -1193 -2080 -1198 0 -3 137 -85 303
-183 451 -264 1241 -726 1595 -934 172 -101 315 -184 317 -184 3 0 5 578 5
1285 0 707 -3 1285 -7 1285 -5 0 -64 -32 -133 -71z"/>
<path d="M4280 5635 l0 -1286 21 12 c12 6 274 160 583 341 309 181 796 468
1083 636 288 169 522 310 520 314 -2 6 -740 431 -2149 1237 l-58 32 0 -1286z"/>
<path d="M6180 5233 c-256 -150 -765 -450 -1133 -665 -513 -301 -664 -395
-655 -403 7 -7 166 -101 353 -210 187 -109 453 -264 590 -345 138 -81 360
-211 495 -290 135 -79 373 -219 530 -311 l285 -167 3 663 c1 365 1 964 0 1332
l-3 669 -465 -273z"/>
<path d="M1700 4169 c0 -1178 2 -1330 15 -1325 8 3 284 163 612 357 329 193
833 489 1120 657 288 169 523 310 523 314 0 4 -33 26 -72 49 -40 23 -201 117
-358 209 -369 217 -1584 928 -1721 1008 -58 34 -109 62 -112 62 -4 0 -7 -599
-7 -1331z"/>
<path d="M3985 3943 c-44 -25 -395 -231 -780 -458 -385 -226 -850 -498 -1032
-605 -183 -107 -333 -198 -333 -202 0 -3 24 -20 53 -36 66 -38 567 -321 957
-542 165 -93 436 -247 603 -341 166 -94 372 -211 458 -260 86 -49 159 -89 163
-89 3 0 6 580 6 1290 0 710 -3 1290 -7 1290 -5 0 -44 -21 -88 -47z"/>
<path d="M4280 2699 l0 -1290 58 33 c32 18 536 305 1119 638 l1061 605 -26 16
c-15 9 -173 102 -352 206 -363 213 -1100 645 -1551 909 -163 96 -300 174 -303
174 -3 0 -6 -581 -6 -1291z"/>
</g>
</svg>
